<svg xmlns="http://www.w3.org/2000/svg" viewBox="0 0 16 21.38"><defs><style>.cls-1{fill:#15ccb0;}</style></defs><g id="Capa_2" data-name="Capa 2"><g id="Capa_12" data-name="Capa 12"><path class="cls-1" d="M16,6.14c0,.08-.45.14-1.34.18a2.33,2.33,0,0,0-.92.17,1.17,1.17,0,0,0-.29.69,9.28,9.28,0,0,1-2,4.5l.15.23.44.73.47.7a2.46,2.46,0,0,0,1,.93,5.52,5.52,0,0,0,1.76.29c.32,0,.48.08.48.22s-.14.14-.42.14H10.14c-.21-.41-.41-.77-.61-1.11a6.4,6.4,0,0,1-4.29,1.4,5.91,5.91,0,0,1-3.79-1.15A3.68,3.68,0,0,1,0,11,3.75,3.75,0,0,1,.91,8.45a7.73,7.73,0,0,1,3-1.87C3.38,6.05,3,5.66,2.8,5.39A3.43,3.43,0,0,1,2.08,3.2,2.88,2.88,0,0,1,3.14.89,4.18,4.18,0,0,1,5.9,0,4.31,4.31,0,0,1,8.58.78a2.4,2.4,0,0,1,1,2q0,2.13-2.88,2.94c.62.64,1.41,1.57,2.37,2.78a31.53,31.53,0,0,1,2.06,2.82,6.59,6.59,0,0,0,1.55-4.45c0-.35-.18-.53-.55-.53-1.12,0-1.68-.06-1.68-.22s.24-.17.7-.17h3.69C15.62,6,16,6,16,6.14ZM9.25,13.45Q5.92,9,4.16,6.94c-.71.52-1.06,1.53-1.06,3a4.55,4.55,0,0,0,1.1,3.09,3.48,3.48,0,0,0,2.72,1.26A3.28,3.28,0,0,0,9.25,13.45ZM7.32,3C7.32,1.25,6.88.36,6,.36S4.75,1,4.75,2.14a3.83,3.83,0,0,0,.47,1.74A4.72,4.72,0,0,0,6.41,5.39,2.71,2.71,0,0,0,7.32,3Z"/><path class="cls-1" d="M14.17,18.21H2.05A1.72,1.72,0,0,0,.21,19.79a1.73,1.73,0,0,0,1.84,1.59H14.17A1.72,1.72,0,0,0,16,19.79,1.72,1.72,0,0,0,14.17,18.21ZM4.78,19.84h-1a.4.4,0,0,0,0,.15.23.23,0,0,0,.06.12A.27.27,0,0,0,4,20.2a.38.38,0,0,0,.16,0,.48.48,0,0,0,.22-.05A.43.43,0,0,0,4.47,20h.29a.54.54,0,0,1-.08.19.4.4,0,0,1-.15.14.51.51,0,0,1-.18.09.78.78,0,0,1-.22,0,.82.82,0,0,1-.28-.05.69.69,0,0,1-.22-.14.71.71,0,0,1-.13-.22.86.86,0,0,1,0-.28.8.8,0,0,1,0-.27,1,1,0,0,1,.14-.22.8.8,0,0,1,.21-.15.61.61,0,0,1,.28-.06.73.73,0,0,1,.29.07.58.58,0,0,1,.21.17.66.66,0,0,1,.13.25A.86.86,0,0,1,4.78,19.84Zm2.3.58h-.3v-.76a.71.71,0,0,0,0-.15.2.2,0,0,0,0-.11l-.07-.07a.32.32,0,0,0-.14,0,.27.27,0,0,0-.23.09.5.5,0,0,0-.07.26v.77h-.3v-.84a.41.41,0,0,0,0-.21.27.27,0,0,0-.2-.07.23.23,0,0,0-.11,0,.21.21,0,0,0-.1.06.39.39,0,0,0-.06.11.32.32,0,0,0,0,.14v.78h-.3V19.11h.29v.18h0l.08-.09a.47.47,0,0,1,.09-.06l.11-.05.15,0a.46.46,0,0,1,.23.06.31.31,0,0,1,.16.16.69.69,0,0,1,.18-.16.46.46,0,0,1,.25-.06.5.5,0,0,1,.34.11.41.41,0,0,1,.12.34Zm1.07.07c0,.06-.05.12-.08.17a.53.53,0,0,1-.08.15l-.13.1a.56.56,0,0,1-.2,0H7.45v-.25l.07,0h.16l.06,0,0,0,0-.08,0-.1-.52-1.31h.33l.36,1H8l.35-1h.32Zm2-.65h-1a.77.77,0,0,0,0,.15.35.35,0,0,0,.07.12.27.27,0,0,0,.12.09.38.38,0,0,0,.16,0,.48.48,0,0,0,.22-.05A.43.43,0,0,0,9.87,20h.29a.84.84,0,0,1-.08.19.4.4,0,0,1-.15.14.51.51,0,0,1-.18.09.78.78,0,0,1-.22,0,.88.88,0,0,1-.29-.05A.77.77,0,0,1,9,20.27a.71.71,0,0,1-.13-.22.86.86,0,0,1,0-.28.8.8,0,0,1,0-.27A.74.74,0,0,1,9,19.28a.57.57,0,0,1,.21-.15.6.6,0,0,1,.27-.06.73.73,0,0,1,.3.07.58.58,0,0,1,.21.17.66.66,0,0,1,.13.25A.86.86,0,0,1,10.18,19.84Zm2.3.58h-.3v-.76c0-.06,0-.1,0-.15a.2.2,0,0,0,0-.11.19.19,0,0,0-.08-.07.25.25,0,0,0-.13,0,.27.27,0,0,0-.23.09.42.42,0,0,0-.07.26v.77h-.3v-.84a.33.33,0,0,0-.06-.21.23.23,0,0,0-.19-.07.23.23,0,0,0-.11,0,.21.21,0,0,0-.1.06.39.39,0,0,0-.06.11.32.32,0,0,0,0,.14v.78h-.3V19.11h.29v.18h0l.08-.09a.2.2,0,0,1,.09-.06l.11-.05.15,0a.46.46,0,0,1,.23.06.31.31,0,0,1,.16.16.85.85,0,0,1,.17-.16.53.53,0,0,1,.26-.06.51.51,0,0,1,.34.11.41.41,0,0,1,.12.34Z"/><path class="cls-1" d="M13.29.2a2.18,2.18,0,1,0,2.17,2.17A2.18,2.18,0,0,0,13.29.2Zm.61,1.1c-.1.13-.2.21-.28.32l-.6.75c-.14.17-.23.31,0,.49s.59.56.76.7,0,.52-.17.32-.58-.6-.83-.81a.55.55,0,0,1-.05-.8l.71-.9c.08-.11.14-.22.23-.34S14,1.11,13.9,1.3Z"/></g></g></svg>